<?xml version="1.0" encoding="utf-8"?>
<!-- Generator: Adobe Illustrator 19.1.0, SVG Export Plug-In . SVG Version: 6.00 Build 0)  -->
<svg version="1.1" id="_x30_3e3c610-9bd4-42aa-bb07-eaa23c126149"
	 xmlns="http://www.w3.org/2000/svg" xmlns:xlink="http://www.w3.org/1999/xlink" x="0px" y="0px" viewBox="250 101 1000 300"
	 style="enable-background:new 250 101 1000 300;" xml:space="preserve">
<style type="text/css">
	.st0{fill:#EAFFE9;}
	.st1{fill:#FFFFFF;}
</style>
<g>
	
		<image style="overflow:visible;opacity:0.5;" width="890" height="248" xlink:href="C98ECAD5.png"  transform="matrix(1 0 0 1 310 132)">
	</image>
	<g>
		<g>
			<path class="st1" d="M695.4,206.7c0,0-0.8-2.3-6.8-7.7s-9.3-10.6-16.9-15.6c-7.6-5-9.8-6.3-13.8-10s-5.3-6-7.9-9.3
				c-2-2.4-4.1-4.8-6.3-7c0,0-17.3,3.8-22.4,6.3s-11.3,7-15.1,9.7c-3.7,2.7-6.7,4.6-12.4,5.9c-5.8,1.3-7.9,0.6-15.6,3.2
				c-7.6,2.6-14.1,6-16.8,8.3c-2.6,2.3-5.9,5.7-8.7,8.5s-10.9,7.8-11.2,7.9C553.7,207.3,695.4,206.7,695.4,206.7z"/>
			<path class="st1" d="M447.2,301.4c0,0-0.6-1.6-5-5.6s-6.8-7.7-12.3-11.3s-7.1-4.6-10-7.3s-3.8-4.3-5.7-6.8
				c-1.4-1.8-2.9-3.5-4.6-5.1c0,0-12.5,2.8-16.3,4.6c-3.8,2-7.5,4.4-10.9,7c-2.6,2.1-5.7,3.6-9,4.3c-4.2,1-5.7,0.4-11.3,2.3
				s-10.2,4.3-12.2,6s-4.3,4.1-6.3,6.2s-8,5.7-8.2,5.8C344.4,301.8,447.2,301.4,447.2,301.4z"/>
			<path class="st1" d="M995.1,274.9c0,0,0.4-0.9,3.2-3s4.4-4.1,8-6c2.3-1.1,4.5-2.4,6.6-3.9c1.4-1.1,2.6-2.3,3.8-3.6
				c1-0.9,2-1.8,3-2.7c0,0,8.2,1.5,10.7,2.4c2.5,1.1,4.9,2.3,7.2,3.7c1.8,1.1,3.8,1.9,5.9,2.3c2.7,0.5,3.8,0.2,7.4,1.2
				c2.8,0.7,5.5,1.8,8,3.2c1.3,0.9,2.8,2.2,4.1,3.3c1.7,1.2,3.5,2.2,5.4,3.1C1062.4,275.1,995.1,274.9,995.1,274.9z"/>
			<path class="st1" d="M1108.2,344.8c0,0,0.3-0.7,2.5-2.3s3.4-3.1,6.2-4.6c1.8-0.9,3.5-1.9,5.1-3c1.1-0.8,2-1.8,2.9-2.8
				c0.7-0.7,1.5-1.4,2.3-2.1c2.8,0.5,5.5,1.1,8.2,1.9c1.9,0.8,3.7,1.8,5.5,2.9c1.4,0.9,2.9,1.5,4.6,1.7c2.1,0.4,2.9,0.2,5.7,0.9
				c2.1,0.5,4.2,1.4,6.1,2.5c1,0.7,2.2,1.7,3.2,2.5c1.3,0.9,2.7,1.7,4.2,2.3C1160.1,344.9,1108.2,344.8,1108.2,344.8z"/>
		</g>
	</g>
</g>
</svg>
