<svg xmlns="http://www.w3.org/2000/svg" viewBox="0 0 262.57 113.1"><defs><style>.cls-1{fill:none;stroke:#dbebc1;stroke-miterlimit:10;}.cls-2{fill:#e6b52c;}.cls-3{fill:#a5d39f;}.cls-4{fill:#fff;}.cls-5{fill:#ea585e;}.cls-6{fill:#d9c3b5;}.cls-7{fill:#c7df9c;}.cls-8{fill:#99b268;}</style></defs><title>newopen_logo</title><g id="圖層_2" data-name="圖層 2"><g id="圖層_1-2" data-name="圖層 1"><path class="cls-1" d="M28.25,61.59C20.65,71.06,11,77.24,9.72,77.24a1.19,1.19,0,0,1-1.17-1.48c.12-.58.51-.91,1.11-1.4a63.89,63.89,0,0,0,16.81-18H15.27c-.58,0-1.78-.16-1.5-1.48a1.93,1.93,0,0,1,2.12-1.48H30l1.18-5.61c.22-1.07,1-3.54,3.62-3.54S37.25,46.6,37,47.75l-1.17,5.61H49.5c.58,0,1.88.08,1.59,1.48A2,2,0,0,1,49,56.32H37.84A32.15,32.15,0,0,0,44,66.2c.86,1,.89,1.24.79,1.73A1.91,1.91,0,0,1,43,69.42c-1.41,0-6-4.86-8.68-8.9L29.91,81.11c-.23,1.07-1,3.55-3.63,3.55s-2.38-2.39-2.14-3.55Zm25.88-22c.57,0,1.77.16,1.49,1.48a2,2,0,0,1-2.12,1.48H16.26c-.57,0-1.77-.16-1.5-1.48a2,2,0,0,1,2.13-1.48ZM37,19.25l1.35-6.42A3.93,3.93,0,0,1,42,9.78a2.45,2.45,0,0,1,2.49,3.05l-1.35,6.42H57c.58,0,1.78.17,1.5,1.49a2,2,0,0,1-2.12,1.48H23.51c-.58,0-1.78-.17-1.5-1.48a1.94,1.94,0,0,1,2.12-1.49ZM32.21,34.49a3.84,3.84,0,0,1-3.73,2.88c-1.82,0-1.88-.49-2.84-4.94-.25-1.15-1.79-6.34-1.64-7.08A1.82,1.82,0,0,1,25.78,24C27.1,24,32.75,31.94,32.21,34.49Zm21.4-7.74c-.62,3-10.46,11-11.77,11a1.12,1.12,0,0,1-1.17-1.48c.12-.57,3.2-4.28,4.31-6,.6-.91,2.8-4.7,3.33-5.27A3.79,3.79,0,0,1,51,23.7,2.53,2.53,0,0,1,53.61,26.75Zm9,23.23A54.24,54.24,0,0,1,49.09,77.24C47,79.63,42.32,84,41.08,84a1.14,1.14,0,0,1-1.18-1.4c.15-.74,3.68-4.2,4.33-4.95C52.73,67.77,55,57,56,52.2l6.32-30.06c1.21-5.77,4.1-6.59,8.88-7A97.11,97.11,0,0,0,89,11.92a10.5,10.5,0,0,1,2.86-.66c1.32,0,2.43,1,2,2.89-.57,2.72-.77,3.29-20.68,4-3.32.08-4.11.74-4.74,3.71L65.24,37.29H88.88c.58,0,1.76.25,1.5,1.49a2,2,0,0,1-2.12,1.48h-8L71.76,80.7c-.27,1.32-1.16,4-4,4s-2.66-2.64-2.38-4l8.5-40.44H64.61Z"/><path class="cls-2" d="M19.73,56.55C12.14,66,2.52,72.2,1.2,72.2A1.2,1.2,0,0,1,0,70.72c.12-.58.52-.91,1.12-1.41A64,64,0,0,0,18,51.28H6.75c-.57,0-1.78-.17-1.5-1.49a2,2,0,0,1,2.13-1.48H21.46l1.18-5.6c.23-1.07,1-3.54,3.63-3.54s2.46,2.39,2.22,3.54l-1.18,5.6H41c.57,0,1.87.08,1.58,1.48a2,2,0,0,1-2.12,1.49H29.33a32.09,32.09,0,0,0,6.16,9.88c.86,1,.89,1.24.79,1.73a1.91,1.91,0,0,1-1.8,1.48c-1.4,0-6-4.86-8.67-8.89L21.39,76.07c-.22,1.07-1,3.54-3.62,3.54s-2.38-2.39-2.14-3.54Zm25.88-22c.58,0,1.78.17,1.5,1.49A2,2,0,0,1,45,37.52H7.75c-.58,0-1.78-.16-1.5-1.48a2,2,0,0,1,2.12-1.49ZM28.47,14.21l1.35-6.43a3.93,3.93,0,0,1,3.69-3,2.44,2.44,0,0,1,2.49,3l-1.35,6.43H48.49c.57,0,1.77.16,1.5,1.48a2,2,0,0,1-2.13,1.48H15c-.58,0-1.78-.16-1.5-1.48a2,2,0,0,1,2.13-1.48ZM23.7,29.45A3.84,3.84,0,0,1,20,32.33c-1.81,0-1.87-.49-2.83-4.94-.25-1.16-1.8-6.34-1.64-7.09a1.82,1.82,0,0,1,1.78-1.4C18.58,18.9,24.23,26.89,23.7,29.45ZM45.1,21.7c-.63,3-10.46,11-11.78,11a1.13,1.13,0,0,1-1.17-1.48c.12-.58,3.21-4.29,4.31-6,.6-.9,2.8-4.69,3.33-5.27a3.84,3.84,0,0,1,2.73-1.23A2.54,2.54,0,0,1,45.1,21.7Zm9,23.23A54.43,54.43,0,0,1,40.58,72.2c-2.15,2.39-6.77,6.75-8,6.75a1.15,1.15,0,0,1-1.19-1.4c.16-.74,3.68-4.2,4.33-4.94,8.51-9.88,10.78-20.68,11.78-25.45l6.32-30.07c1.21-5.76,4.1-6.59,8.89-7A97.16,97.16,0,0,0,80.51,6.88a10.37,10.37,0,0,1,2.85-.66c1.32,0,2.43,1,2,2.88-.58,2.72-.78,3.3-20.69,4-3.31.08-4.11.74-4.73,3.7L56.72,32.25H80.36c.58,0,1.77.25,1.51,1.48a2,2,0,0,1-2.13,1.48h-8l-8.5,40.45c-.28,1.32-1.16,4-4,4s-2.65-2.63-2.38-4l8.5-40.45H56.1Z"/><path class="cls-1" d="M93.45,106.47c-.28,1.31-1.13,3.79-3.93,3.79s-2.57-2.64-2.33-3.79l12.81-61c1-4.78,2.82-6.75,9.17-6.75h14.25c6.84,0,7.22,2.47,6.32,6.75L127.11,58c-1,4.86-2.82,6.76-9.16,6.76H102.21Zm11.22-53.38-1.83,8.73h12.6c4,0,4.87-.82,5.68-4.69l.85-4ZM122.61,50l.76-3.62c.82-3.87.33-4.7-3.71-4.7h-7.9c-4.21,0-4.93,1.07-5.69,4.7L105.31,50Zm14,35.34h9.81c.57,0,1.77.16,1.5,1.48a2,2,0,0,1-2.13,1.48H136l-3.43,16.31c-.28,1.32-1.13,3.79-3.84,3.79s-2.52-2.55-2.27-3.7l3.44-16.4h-9.64C118.32,94.77,115.63,98.56,110,103c-3.56,2.8-7.73,5-8.64,5a1.11,1.11,0,0,1-1.09-1.48c.12-.58.36-.91,2-1.9,7.4-4.61,10.21-10.54,11.84-16.31h-10.8c-.57,0-1.77-.16-1.5-1.48a2,2,0,0,1,2.13-1.48h10.95l2.43-11.53h-8.73c-.58,0-1.78-.17-1.51-1.49a2,2,0,0,1,2.13-1.48h38.31c.57,0,1.77.17,1.5,1.48a1.92,1.92,0,0,1-2.13,1.49H139Zm-3.67-11.53h-9.31l-1.49,7.08c-.47,2.23-.52,2.47-1,4.45h9.4Zm8.17-9.06c-6.92,0-7.23-2.47-6.33-6.76l2.63-12.52c1-4.78,2.82-6.75,9.17-6.75h14.09c6.92,0,7.22,2.47,6.32,6.75l-12.07,57.42c-.8,3.78-1.54,7.33-8.87,7.33h-6.92c-.83,0-2.23,0-1.92-1.49s1.72-1.48,2.54-1.48h3.38c4.2,0,4.85-1.15,5.62-4.78l7.93-37.72Zm.64-11.7-.85,4c-.76,3.62-.49,4.69,3.71,4.69h12.69l1.83-8.73Zm18-3.05.77-3.62c.81-3.87.32-4.7-3.63-4.7h-8.07c-4.2,0-4.92,1.07-5.69,4.7L142.38,50Z"/><path class="cls-2" d="M84.94,101.42c-.28,1.32-1.13,3.79-3.93,3.79s-2.58-2.63-2.34-3.79L91.49,40.47c1-4.78,2.82-6.76,9.16-6.76H114.9c6.84,0,7.23,2.47,6.33,6.76L118.59,53c-1,4.86-2.82,6.75-9.16,6.75H93.7ZM96.16,48.05l-1.84,8.73h12.6c4,0,4.87-.83,5.69-4.7l.84-4Zm17.94-3,.76-3.63c.81-3.87.33-4.69-3.71-4.69h-7.91c-4.2,0-4.92,1.07-5.68,4.69L96.8,45Zm14,35.33h9.8c.58,0,1.78.17,1.5,1.49a2,2,0,0,1-2.12,1.48h-9.81L124,99.61c-.28,1.32-1.13,3.79-3.85,3.79s-2.51-2.55-2.27-3.71l3.45-16.39h-9.64c-1.93,6.43-4.62,10.21-10.25,14.66-3.56,2.8-7.73,5-8.64,5a1.11,1.11,0,0,1-1.08-1.49c.12-.57.35-.9,2-1.89,7.39-4.61,10.21-10.54,11.83-16.31H94.76c-.58,0-1.78-.16-1.5-1.48a2,2,0,0,1,2.12-1.49h11l2.42-11.53H100c-.58,0-1.78-.16-1.5-1.48a2,2,0,0,1,2.12-1.48H139c.58,0,1.78.16,1.5,1.48a1.91,1.91,0,0,1-2.12,1.48h-7.83ZM124.41,68.8h-9.3l-1.49,7.09c-.47,2.22-.52,2.47-1,4.44H122Zm8.17-9.06c-6.92,0-7.22-2.47-6.32-6.75l2.63-12.52c1-4.78,2.82-6.76,9.16-6.76h14.09c6.92,0,7.22,2.47,6.32,6.76L146.4,97.88c-.8,3.79-1.55,7.33-8.88,7.33H130.6c-.82,0-2.22,0-1.91-1.48s1.71-1.48,2.53-1.48h3.38c4.2,0,4.86-1.16,5.62-4.78l7.93-37.73Zm.65-11.69-.85,4c-.76,3.63-.49,4.7,3.71,4.7h12.68l1.84-8.73Zm18-3,.76-3.63c.82-3.87.33-4.69-3.62-4.69h-8.08c-4.2,0-4.92,1.07-5.68,4.69L133.87,45Z"/><path class="cls-1" d="M212.08,57.6h9.31c6.84,0,7.14,2.47,6.24,6.75l-1.14,5.44c-.8,3.79-1.54,7.33-8.87,7.33H213c-.82,0-2.22,0-1.91-1.48s1.71-1.49,2.54-1.49h1.48c4.2,0,4.92-1.07,5.68-4.69l.88-4.2c.82-3.87.25-4.7-3.7-4.7h-6.51l-3.33,15.82c-.27,1.32-1.19,3.7-3.82,3.7-3,0-2.33-3-2.19-3.7l3.32-15.82h-6.5c-4.21,0-4.93,1.07-5.69,4.7l-1.69,8.07c-.26,1.24-1.13,3.79-3.85,3.79-3.13,0-2.47-3.13-2.33-3.79l1.88-9c1-4.86,2.82-6.75,9.17-6.75h9.64l1.35-6.43h-6.35c-15,11.21-30,15.74-30.33,15.74a1.14,1.14,0,0,1-1.17-1.49,1.82,1.82,0,0,1,1.37-1.4,86.21,86.21,0,0,0,23-12.85H175.12c-.49,0-1.79-.08-1.5-1.48a2,2,0,0,1,2.13-1.48h21.58a31.47,31.47,0,0,0,4.42-5h-7.09c-6.92,0-7.24-2.38-6.32-6.75l1.54-7.33c1-4.86,2.84-6.84,9.18-6.84h35.18c6.83,0,7.22,2.47,6.3,6.84L239,36.51c-1,4.86-2.82,6.75-9.16,6.75H209.9a60.37,60.37,0,0,1-5.15,5h42.18c.57,0,1.77.16,1.5,1.48a1.92,1.92,0,0,1-2.13,1.48h-19c3.68,4.86,6.56,8.4,17.81,12.11.37.17,1.31.41,1.07,1.57a2,2,0,0,1-1.88,1.48A45.68,45.68,0,0,1,237,63.86c-10.34-4.12-14.59-9-17.27-12.69h-6.26Zm-8.8-48.68c.16-.75.82-3.88,3.95-3.88s2.47,3.13,2.31,3.88l-.65,3.13h19.85L229.38,9c.28-1.32,1.16-4,4-4s2.6,2.56,2.3,4L235,12.05h19.53c.57,0,1.77.16,1.5,1.48A2,2,0,0,1,253.9,15H234.38l-.5,2.39c-.32,1.48-1.33,4-4,4-2.88,0-2.56-2.71-2.3-4l.51-2.39H208.26l-.52,2.47c-.26,1.24-1.06,3.87-3.94,3.87-3.13,0-2.47-3.13-2.32-3.87L202,15H182.72c-.49,0-1.79-.08-1.5-1.48a1.9,1.9,0,0,1,2.13-1.48h19.28Zm-8.47,25-.35,1.64c-.81,3.88-.33,4.7,3.71,4.7H227.5c4.2,0,4.92-1.07,5.68-4.7l.35-1.64Zm39.34-3c.9-4.28,1.19-5.68-3.5-5.68H201.32c-4.7,0-5,1.4-5.89,5.68Z"/><path class="cls-2" d="M203.57,52.55h9.3c6.84,0,7.15,2.47,6.25,6.76L218,64.74c-.79,3.79-1.54,7.33-8.87,7.33h-4.61c-.83,0-2.23,0-1.92-1.48s1.72-1.48,2.54-1.48h1.48c4.2,0,4.92-1.07,5.69-4.7l.88-4.2c.81-3.87.24-4.69-3.71-4.69h-6.51l-3.32,15.81c-.28,1.32-1.19,3.71-3.83,3.71-3,0-2.32-3.05-2.19-3.71l3.33-15.81h-6.51c-4.2,0-4.92,1.07-5.68,4.69L183,68.29c-.26,1.23-1.13,3.78-3.84,3.78-3.13,0-2.48-3.13-2.34-3.78l1.89-9c1-4.86,2.82-6.76,9.16-6.76h9.64l1.35-6.42h-6.34c-15,11.2-30,15.73-30.33,15.73a1.13,1.13,0,0,1-1.17-1.48,1.76,1.76,0,0,1,1.36-1.4,86.32,86.32,0,0,0,23-12.85H166.61c-.5,0-1.8-.08-1.5-1.48a2,2,0,0,1,2.12-1.49h21.59a30.89,30.89,0,0,0,4.41-4.94h-7.08c-6.92,0-7.24-2.39-6.33-6.75l1.54-7.34c1-4.86,2.84-6.83,9.18-6.83h35.18c6.84,0,7.23,2.47,6.31,6.83l-1.54,7.34c-1,4.86-2.82,6.75-9.16,6.75H201.39a60.75,60.75,0,0,1-5.16,4.94h42.18c.58,0,1.78.17,1.5,1.49a1.91,1.91,0,0,1-2.12,1.48H218.84c3.67,4.86,6.55,8.4,17.8,12.11.38.16,1.32.41,1.07,1.56a2,2,0,0,1-1.87,1.48,44.66,44.66,0,0,1-7.39-2.47c-10.34-4.12-14.59-9-17.27-12.68h-6.26Zm-8.8-48.68c.15-.74.81-3.87,3.94-3.87s2.47,3.13,2.32,3.87L200.37,7h19.86l.64-3c.27-1.31,1.16-3.95,4-3.95s2.59,2.55,2.3,4L226.49,7H246c.58,0,1.78.17,1.5,1.48A2,2,0,0,1,245.39,10H225.86l-.5,2.39c-.31,1.48-1.32,3.95-4,3.95-2.88,0-2.56-2.72-2.3-3.95l.5-2.39H199.75l-.52,2.47c-.26,1.23-1.06,3.87-3.95,3.87-3.13,0-2.47-3.13-2.31-3.87l.52-2.47H174.21c-.5,0-1.8-.09-1.5-1.49A1.89,1.89,0,0,1,174.83,7h19.28Zm-8.48,25L186,30.56c-.82,3.87-.33,4.69,3.7,4.69H219c4.2,0,4.92-1.07,5.68-4.69l.35-1.65Zm39.34-3c.9-4.29,1.2-5.69-3.5-5.69H192.81c-4.7,0-5,1.4-5.89,5.69Z"/><path class="cls-3" d="M238.48,72.1a39.23,39.23,0,0,0-4.2,8.3,13.12,13.12,0,0,0,.11,9.14c.56,1.26,1.7,2.54,3.05,2.31a3.39,3.39,0,0,0,1.75-1.15,16.48,16.48,0,0,0,1.64-19.87"/><path class="cls-3" d="M237.19,71.34c-2.88,4.72-5.84,9.91-5,15.66.38,2.71,2.13,7,5.68,6.29s5.87-6.35,6.6-9.49a18.28,18.28,0,0,0-2.31-13.73c-1-1.64-3.6-.13-2.59,1.52a15.22,15.22,0,0,1-.16,16.49c-1.94,2.85-4.18.44-4.35-2.4a14,14,0,0,1,.7-4.88,36.32,36.32,0,0,1,4.05-8c1-1.65-1.59-3.16-2.59-1.51Z"/><path class="cls-3" d="M235,91.46a19.07,19.07,0,0,0,2,15.11c.78,1.28,1.91,2.58,3.41,2.65,1.76.08,3.11-1.56,3.82-3.18a13.78,13.78,0,0,0-4.66-16.32"/><path class="cls-3" d="M233.57,91.06a21.17,21.17,0,0,0,1,14.12c1.45,3.24,4.59,7.27,8.48,4.72,3.4-2.24,4.05-7.59,3.5-11.24a15.52,15.52,0,0,0-6.24-10.23c-1.54-1.17-3,1.44-1.52,2.59,3.78,2.86,7,9.88,4,14.42-3.26,5-6.09-2.62-6.6-4.84a18.33,18.33,0,0,1,.27-8.74c.49-1.87-2.41-2.67-2.89-.8Z"/><path class="cls-3" d="M233.07,83.12l-10.2-5.49A3,3,0,0,1,221.19,76a2,2,0,0,1,1.62-2.25,5,5,0,0,1,3,.51,23.34,23.34,0,0,1,9,6.74"/><path class="cls-3" d="M233.83,81.83l-5.57-3-2.78-1.5-1.86-1c-.41-1-.25-1.36.5-1,1.21-.3,4.18,1.9,5.14,2.56a23.28,23.28,0,0,1,4.5,4.2c1.26,1.47,3.37-.66,2.13-2.12a25.54,25.54,0,0,0-7.74-6.24c-2.14-1.1-4.93-2.35-7.12-.7s-1.55,4.12.38,5.49c3.29,2.33,7.35,4,10.9,5.91,1.7.92,3.22-1.67,1.52-2.59Z"/><path class="cls-3" d="M242,94.62A42.78,42.78,0,0,1,253.67,86c1.26-.63,3-1.1,3.87,0a2.16,2.16,0,0,1-.08,2.46,5.89,5.89,0,0,1-2,1.66,59.41,59.41,0,0,1-15.2,6.33"/><path class="cls-3" d="M243.07,95.68a43.21,43.21,0,0,1,6.54-5.53c.92-.62,1.87-1.22,2.85-1.77.64-.37,1.3-.72,2-1.06,1.58.32,1.85.71.83,1.15-.93,1.52-5.21,2.89-6.86,3.62a62.55,62.55,0,0,1-8.55,3,1.5,1.5,0,0,0,.8,2.89,64.05,64.05,0,0,0,13.5-5.32c2.41-1.3,6.61-3.56,4.84-7-3.3-6.34-15.49,5.35-18,7.93-1.36,1.37.76,3.5,2.12,2.12Z"/><path class="cls-3" d="M241.15,72.56a5,5,0,0,1-6-.78,7.69,7.69,0,0,1-2.12-5.93,17.32,17.32,0,0,1,1.73-6.22,74.94,74.94,0,0,1,4.75-8.77,13.09,13.09,0,0,1,2.59-3.31,4.56,4.56,0,0,1,3.92-1.09c2.21.55,3.26,3.09,3.54,5.35.91,7.52-3.13,14.7-7.37,21"/><path class="cls-3" d="M240.39,71.26c-3.59,1.6-5.93-2.27-5.83-5.41.08-2.43,1.2-4.82,2.22-7,.72-1.5,1.52-3,2.35-4.41,1.67-2.92,1.81-3.91,5.29-4.63,2.18-1.42,3.35-1,3.52,1.22a13,13,0,0,1,.25,3.34,20.7,20.7,0,0,1-1.2,6.33A49.89,49.89,0,0,1,240.93,72c-1.07,1.61,1.52,3.12,2.59,1.51,4.29-6.47,9.09-14.58,7.41-22.71-1.1-5.32-6.06-8-10.35-3.86s-9.51,13.93-9,20.17c.45,5.4,5.22,9,10.32,6.7,1.76-.78.23-3.37-1.52-2.59Z"/><path class="cls-4" d="M240.16,58.27a1.95,1.95,0,0,0,3.84.54.75.75,0,0,0-1.45-.4.45.45,0,0,1-.89-.14.75.75,0,0,0-1.5,0Z"/><path class="cls-4" d="M240.91,63.23a1.95,1.95,0,0,0,3.84.55.75.75,0,0,0-1.45-.4.45.45,0,1,1-.89-.15.75.75,0,0,0-1.5,0Z"/><path class="cls-4" d="M239.21,69a1.94,1.94,0,0,0,3.83.55.75.75,0,0,0-1.44-.4.45.45,0,0,1-.89-.15.75.75,0,0,0-1.5,0Z"/><path class="cls-4" d="M238.76,78.73a1.94,1.94,0,0,0,3.83.55.75.75,0,0,0-1.44-.4.45.45,0,0,1-.89-.15.75.75,0,0,0-1.5,0Z"/><path class="cls-4" d="M234,81.7a1.95,1.95,0,0,0,3.84.55.75.75,0,0,0-1.45-.4.45.45,0,0,1-.89-.15.75.75,0,0,0-1.5,0Z"/><path class="cls-4" d="M223.59,78.24a1.94,1.94,0,0,0,2.21-3.18c-.74-.62-1.81.44-1.07,1.06.4.33.21,1.11-.38.83-.87-.42-1.63.88-.76,1.29Z"/><path class="cls-4" d="M228.09,79.85a2,2,0,0,0,2.7,0,2,2,0,0,0,.24-2.54c-.55-.79-1.85,0-1.29.75.3.43-.09,1.13-.59.71-.73-.62-1.8.44-1.06,1.06Z"/><path class="cls-4" d="M237.45,85.52a1.94,1.94,0,0,0,3.83.54.75.75,0,0,0-1.44-.4.45.45,0,0,1-.89-.14.75.75,0,0,0-1.5,0Z"/><path class="cls-4" d="M236.13,90.87a1.94,1.94,0,0,0,3.83.55.75.75,0,0,0-1.44-.4.45.45,0,0,1-.89-.15.75.75,0,0,0-1.5,0Z"/><path class="cls-4" d="M240.72,99.83a2,2,0,0,0,2.56.43,2,2,0,0,0,.66-2.56.76.76,0,0,0-1-.27.77.77,0,0,0-.27,1,.49.49,0,0,1-.21.56.54.54,0,0,1-.66-.25.75.75,0,0,0-1.06,0,.76.76,0,0,0,0,1.06Z"/><path class="cls-4" d="M235,96.65A2,2,0,0,0,237,98.23a2,2,0,0,0,1.81-1.93c.06-1-1.44-1-1.5,0-.05.67-.81.47-.92,0-.18-1-1.62-.55-1.44.4Z"/><path class="cls-4" d="M241.25,105.59a1.95,1.95,0,0,0,3.5-1.67c-.33-.9-1.78-.51-1.45.4.18.51-.39,1-.75.51-.54-.79-1.84,0-1.3.76Z"/><path class="cls-4" d="M235.42,103.81a2,2,0,0,0,2.05,1.58,2,2,0,0,0,1.81-1.93c.07-1-1.43-1-1.5,0-.05.66-.81.47-.91,0-.19-1-1.63-.55-1.45.4Z"/><path class="cls-4" d="M234.31,63.61a1.94,1.94,0,0,0,3.83.54.75.75,0,0,0-1.44-.4.45.45,0,0,1-.89-.14.75.75,0,0,0-1.5,0Z"/><path class="cls-4" d="M246.08,52.88a2,2,0,0,0,1.66,2,2,2,0,0,0,2.17-1.47.75.75,0,0,0-1.44-.39.45.45,0,0,1-.89-.15.75.75,0,0,0-1.5,0Z"/><path class="cls-4" d="M247,89.83a1.94,1.94,0,0,0,2.37,3.06.75.75,0,0,0-.76-1.29.45.45,0,0,1-.55-.71c.68-.69-.38-1.75-1.06-1.06Z"/><path class="cls-4" d="M252.06,87.74a1.94,1.94,0,0,0,2.37,3.06.75.75,0,0,0-.76-1.29.45.45,0,0,1-.55-.71c.68-.69-.38-1.75-1.06-1.06Z"/><path class="cls-4" d="M239.58,51.54a1.94,1.94,0,0,0,3.83.55.75.75,0,0,0-1.44-.4.45.45,0,0,1-.89-.15.75.75,0,0,0-1.5,0Z"/><path class="cls-5" d="M254.91,84.82a4.7,4.7,0,0,1-1.19-3.09l1.13,1.2a10.52,10.52,0,0,1,.75-2.81l.56,2.5,2.17-2.4a8.33,8.33,0,0,0-.16,2.39l2.19-1.07-1,2.5,2.43-.35a6.44,6.44,0,0,1-3.93,2Z"/><path class="cls-5" d="M255.44,84.29a4.27,4.27,0,0,1-1-2.56l-1.28.54,1.13,1.19a.76.76,0,0,0,1.25-.33,13,13,0,0,1,.76-2.81h-1.45l.56,2.5a.75.75,0,0,0,1.25.33l2.17-2.4L257.61,80a11.23,11.23,0,0,0-.19,2.59.76.76,0,0,0,1.13.64l2.19-1.06-1.1-.85-1,2.5c-.23.6.43,1,.92.92l2.43-.35-.73-1.25c-1,1-2.43,2-3.84,1.64-.79-.21-1.56-.47-2.33-.7a.75.75,0,0,0-.4,1.44,19.12,19.12,0,0,0,2.94.89c1.69.21,3.57-1.09,4.69-2.21a.76.76,0,0,0-.73-1.26l-2.43.36.93.92,1-2.5c.26-.66-.57-1.1-1.1-.84L257.79,82l1.13.65a9.49,9.49,0,0,1,.14-2.19c.12-.68-.71-1.33-1.26-.73l-2.17,2.4,1.25.33-.55-2.5c-.18-.79-1.2-.63-1.45,0a13,13,0,0,0-.75,2.81l1.25-.33-1.13-1.2a.76.76,0,0,0-1.28.53,6,6,0,0,0,1.41,3.62C255,86.1,256,85,255.44,84.29Z"/><path class="cls-6" d="M230,77.86a28.27,28.27,0,0,1-.81,4.68c-.29-1.24-.63-2.48-1-3.7a.34.34,0,0,0,.06-.15l.13-.58a4.25,4.25,0,0,0,.41-1.9c0-.68-1-.66-1.12-.06l-.16.7c-.13-.36-.26-.71-.4-1.07-.27-.68-1.34-.31-1.07.37s.42,1.13.62,1.7l-2.7-1.32c-.61-.3-1,.51-.61,1A9,9,0,0,0,227,79.82a.54.54,0,0,0,.25,0,47.78,47.78,0,0,1,1.21,5v0a6.6,6.6,0,0,0-.69-.71c-1.78-1.54-4.35-1.89-5.77-3.88a.57.57,0,0,0-1,.36c.2,3.66,3.87,4.46,6.28,6.41l-1.21-.12a.57.57,0,0,0-.66.46.57.57,0,0,0,.45.66l2.16.2a.68.68,0,0,0,.38-.07,6.17,6.17,0,0,1,.39.6.48.48,0,0,0,.3.25c.13,1.33.2,2.68.22,4-1.74-2.23-5.62-2.16-7.24-4.73-.28-.46-1.13-.21-1,.36.5,3,3.1,3.68,5.37,4.83a10.37,10.37,0,0,0-1.25,0c-.73,0-.65,1.16.08,1.14a7.72,7.72,0,0,1,3.28.61.63.63,0,0,0,.3,0,4.81,4.81,0,0,1,.42.56l0,0c0,.86-.1,1.71-.19,2.57-1.19-1.53-4-1.12-5.25-2.79a.58.58,0,0,0-1,.07,1.83,1.83,0,0,0,.92,2.52,5.23,5.23,0,0,0,1.88.36,3.08,3.08,0,0,1,2.83,2,.49.49,0,0,0,.29.32c-.07.49-.15,1-.24,1.45a.56.56,0,0,0,1.11.2c.11-.58.2-1.16.29-1.75A7.81,7.81,0,0,0,232,99.5a.62.62,0,0,0-.31-1.08,28.94,28.94,0,0,0,2.9-4.33c.27-.48-.39-1.07-.83-.71a17.74,17.74,0,0,0-3.41,3.68c.05-.8.09-1.6.11-2.39a.56.56,0,0,0,.24-.49,4.35,4.35,0,0,1,0-.51l.08,0L232.9,92c.57-.45-.06-1.39-.64-.94l-1,.81c.92-2,2.58-3.9,1.57-6.28-.17-.4-.89-.58-1-.06L230.3,90c-.1-1.45-.28-2.88-.52-4.31.19-.5.37-1,.54-1.51l1.86-2.46c.44-.58-.42-1.32-.86-.74l-.27.36a10.87,10.87,0,0,0,.06-3.37C231,77.32,230.05,77.18,230,77.86Zm-1.91,8.43c-1.71-1.29-4-2.15-5.17-3.7C224.7,83.83,226.85,84.52,228.07,86.29Z"/><path class="cls-7" d="M227.89,110.72c1.19.57,2.62,0,3.66-.85a9.8,9.8,0,0,0,3.62-6.32,4.45,4.45,0,0,0-.69-3.39,4.28,4.28,0,0,0-4-1.13,7.29,7.29,0,0,0-5.72,4.7,5.77,5.77,0,0,0,2.51,6.71Z"/><path class="cls-7" d="M227.69,111.44c7,2.2,12.48-13.31,3.69-13.24a7.9,7.9,0,0,0-7.59,6.2,6.37,6.37,0,0,0,3.9,7c.9.36,1.28-1.09.4-1.45-5.07-2-2.69-8.69,1.59-10,1.56-.48,2.76-.45,3.88.76s1,2.66.5,4.25c-.74,2.25-3.15,5.88-6,5C227.17,109.7,226.77,111.15,227.69,111.44Z"/><path class="cls-7" d="M225.26,102.3A13.13,13.13,0,0,0,222.59,96a3,3,0,0,0-1.36-1.11,2.48,2.48,0,0,0-2.6,1.12,4,4,0,0,0-.59,3.41,7.54,7.54,0,0,0,3.07,3.69,4.16,4.16,0,0,0,2.51,1.09c.93,0,1.85-1,1.46-1.87"/><path class="cls-7" d="M226,102.1c-.41-2.51-1.74-6.9-4.47-7.86-2.42-.84-4.32,1.92-4.37,4,0,2.7,2.34,4.93,4.53,6.15,1.85,1,4.68.28,4.13-2.26-.2-1-1.65-.55-1.45.4.5,2.28-2.64.1-2.87-.07a11.72,11.72,0,0,1-1.51-1.31c-1.11-1.16-1.91-3-.82-4.44,2.7-3.62,5.1,4,5.38,5.75.16,1,1.6.55,1.45-.4Z"/><path class="cls-7" d="M223.6,97.2a6.17,6.17,0,0,1,1.92-2.44,1.91,1.91,0,1,1,2.06,3.15,6.32,6.32,0,0,1-3.18.8"/><path class="cls-7" d="M224.25,97.58a6.74,6.74,0,0,1,1.35-2c.51-.43,1.51-.83,2.07-.24s-.12,1.69-.73,2a5.83,5.83,0,0,1-2.54.54c-1,.07-1,1.57,0,1.5,1.43-.1,3-.25,4.1-1.35a2.84,2.84,0,0,0,.5-3.45,2.77,2.77,0,0,0-3.25-.85,5.83,5.83,0,0,0-2.8,3c-.46.84.83,1.6,1.3.75Z"/><path class="cls-7" d="M235,104.24a5.27,5.27,0,0,1,2.84-.86c1,.1,2,1,1.73,2s-1.42,1.29-2.39,1.25a7,7,0,0,0-2.89.06"/><path class="cls-7" d="M235.39,104.89a4,4,0,0,1,2.56-.73c.39.1,1,.52.91,1-.08.35-.49.51-.78.61-1.28.4-2.66-.24-4,.18-.92.29-.53,1.74.4,1.44,1.34-.42,2.74.22,4.1-.22a2.34,2.34,0,0,0,1.77-2.1,2.57,2.57,0,0,0-1.73-2.29c-1.38-.51-2.79.15-4,.78-.86.45-.1,1.75.76,1.3Z"/><path class="cls-7" d="M232.91,99.05a29.57,29.57,0,0,1,.55-3.26,2.73,2.73,0,0,1,2.32-2,2.24,2.24,0,0,1,2,2,3.6,3.6,0,0,1-1,2.82,9.88,9.88,0,0,1-2.45,1.85"/><path class="cls-7" d="M233.64,99.25c.16-.93.18-1.89.42-2.8s1.11-2.47,2.3-1.76.67,2.45-.06,3.31a8.72,8.72,0,0,1-2.3,1.74.75.75,0,0,0,.76,1.29c1.52-.92,3.14-2,3.67-3.82a3.33,3.33,0,0,0-1-3.62,2.68,2.68,0,0,0-3.45.14c-1.5,1.3-1.43,3.32-1.75,5.12-.17,1,1.28,1.35,1.45.4Z"/><path class="cls-8" d="M219.84,96.76l.44,1.78c.11.47.83.27.72-.2l-.43-1.78a.38.38,0,0,0-.73.2Z"/><path class="cls-8" d="M222.78,98.58,222,99.93a.37.37,0,0,0,.64.38l.82-1.35a.38.38,0,0,0-.65-.38Z"/><path class="cls-8" d="M219.42,100.29l1,1.11c.33.36.86-.17.53-.53l-1-1.11c-.33-.36-.86.17-.53.53Z"/><path class="cls-8" d="M225.54,97.18l1.71-.32c.47-.09.27-.81-.2-.72l-1.71.32c-.47.09-.27.81.2.72Z"/><path class="cls-8" d="M223.11,102.21l.84.84a.38.38,0,0,0,.53-.53l-.84-.84a.38.38,0,0,0-.53.53Z"/><path class="cls-8" d="M226.35,102.79l.1,1.23c0,.48.79.48.75,0l-.1-1.23c0-.48-.79-.49-.75,0Z"/><path class="cls-8" d="M225.47,106.88l1.81.62c.46.15.66-.57.2-.73l-1.81-.62c-.46-.15-.65.57-.2.73Z"/><path class="cls-8" d="M229.76,100.37l-.64,1.63c-.18.44.55.64.72.2l.65-1.63c.17-.45-.55-.65-.73-.2Z"/><path class="cls-8" d="M231.92,102.06l-.88,1.47a.37.37,0,0,0,.64.38l.89-1.48c.25-.41-.4-.79-.65-.37Z"/><path class="cls-8" d="M229.12,105.62l1,.91c.35.33.88-.2.53-.53l-1-.91c-.35-.34-.88.19-.53.53Z"/><path class="cls-8" d="M232.59,105.68l1.48,0a.38.38,0,0,0,0-.75l-1.48,0c-.48,0-.48.73,0,.75Z"/><path class="cls-8" d="M238,104.15l-1.55.91a.38.38,0,0,0,.38.65l1.55-.91c.41-.25,0-.9-.38-.65Z"/><path class="cls-8" d="M233,100.71l.86,1.35c.26.41.91,0,.65-.37l-.86-1.36c-.26-.41-.91,0-.65.38Z"/><path class="cls-8" d="M234.21,96.11l-.12,1.6c0,.48.71.48.75,0l.12-1.6c0-.48-.71-.48-.75,0Z"/><path class="cls-8" d="M236.52,95.82l-1.14,1.33c-.31.36.22.9.53.53l1.14-1.33c.31-.37-.22-.9-.53-.53Z"/><path class="cls-8" d="M228.64,108.13l-.54,1.18c-.2.44.45.82.65.38l.54-1.18c.2-.44-.44-.82-.65-.38Z"/><path class="cls-8" d="M232.21,107.54l-1.21.62c-.43.22-.05.86.38.65l1.2-.62c.43-.22,0-.87-.37-.65Z"/><path class="cls-5" d="M247.61,97.81a3.81,3.81,0,0,1,1.15,4.12,1.2,1.2,0,0,0-1.41-.36,1.31,1.31,0,0,0-.67.71,5.16,5.16,0,0,0-2.33-1.51,0,0,0,0,0,0,0C244.37,99.34,245.9,96.51,247.61,97.81Zm1.29,6.46c-.13.94-.85,1.89-1.87,1.65a2.57,2.57,0,0,0,.12-1.41c-.13-.77-.67-2.37.47-2.7S249,103.5,248.9,104.27Zm-1.83,4.43a5.15,5.15,0,0,1-1.91,1.39,2.14,2.14,0,0,1-2.22-.22,1.21,1.21,0,0,1,.1-2,.34.34,0,0,0,.06-.06,2.18,2.18,0,0,0,2.48-.76,2.21,2.21,0,0,0,.95-.45s.05,0,.07,0a.92.92,0,0,1,1,.9A1.67,1.67,0,0,1,247.07,108.7Zm-5-1.63a.21.21,0,0,0-.1-.06,3.56,3.56,0,0,1-1.05-1,1.78,1.78,0,0,1-.38-1.2c.1-.67.83-.74,1.37-.6a3.07,3.07,0,0,1,2,1.87l0,0a.13.13,0,0,1,0,.06,1.06,1.06,0,0,0,1.14,1,2.17,2.17,0,0,1-2.16.36A3.81,3.81,0,0,1,242.09,107.07Zm1.3-3.7a3.39,3.39,0,0,1-1-.82c-.56-.86.4-1.46,1.16-1.52h.18a.08.08,0,0,0,.07,0,4.24,4.24,0,0,1,2.82,1.63,3.74,3.74,0,0,0,.05,1,3.81,3.81,0,0,0-1,.31,1.56,1.56,0,0,0-2.25-.57Zm2.06,3.43a.91.91,0,0,1-1.12-1c.13-1.06,1.43-1.75,2.37-1.89a3.25,3.25,0,0,1,0,1.91A1.67,1.67,0,0,1,245.45,106.8Zm-.09-2.71a2.62,2.62,0,0,0-1.3,1.41,3.58,3.58,0,0,0-1-1.16A1.27,1.27,0,0,1,245.36,104.09ZM242,96.91a3,3,0,0,1,3,1.29,4,4,0,0,0-.93,2.5l-.28,0a8.13,8.13,0,0,0-2.41-1,6.86,6.86,0,0,0-.89-.15C240.49,98.42,240.74,97.24,242,96.91Zm-2.34,3a3.93,3.93,0,0,1,2,.2,7.23,7.23,0,0,1,1.5.6,2,2,0,0,0-.45.15,1.25,1.25,0,0,0-.85,1.35c.12.66.72,1,1.23,1.34a2,2,0,0,0-.38.58,2.63,2.63,0,0,0-1.14-.36,1.28,1.28,0,0,0-1.09.39,6,6,0,0,1-1.06-1.86C239.24,101.71,238.74,100.19,239.67,99.94Zm-2.47,2.78c-.4-.51-.84-1.28,0-1.65a2.35,2.35,0,0,1,1.61-.06c0,.29.11.57.16.8a5.8,5.8,0,0,0,.4,1.15,9.56,9.56,0,0,0-2.14-.16A.16.16,0,0,0,237.2,102.72Zm-1.48,2.89c-.36-.33-.9-.79-.92-1.32s.71-.87,1.22-1a8.78,8.78,0,0,1,3.5,0h0a6.77,6.77,0,0,0,.78,1.14h0a1.43,1.43,0,0,0,0,1.11,3.57,3.57,0,0,0,1.23,1.54A6.29,6.29,0,0,1,235.72,105.61Zm3.88,4.85a1.79,1.79,0,0,1-1.66-3.15,6.33,6.33,0,0,0,4,0l.29.16a5.6,5.6,0,0,0-2.36,2.36,2.41,2.41,0,0,0-.17.58Zm3.48,2.1a2.29,2.29,0,0,1-2.59-.37,2.09,2.09,0,0,1-.17-2.54,6.24,6.24,0,0,1,2.16-1.92.19.19,0,0,0,.06-.07l.17,0a1.51,1.51,0,0,0-.23,2.14,2.24,2.24,0,0,0,2.33.68.15.15,0,0,0,0,.07A3.5,3.5,0,0,1,243.08,112.56ZM249,109.7a5,5,0,0,1,.26,2c-.1.75-.69,1.56-1.54,1.4a3.19,3.19,0,0,1-1.44-1,7.17,7.17,0,0,1-1.11-1.51.14.14,0,0,0,0-.13l.11,0a5.27,5.27,0,0,0,2.2-1.64,3.41,3.41,0,0,0,1.55.86A.11.11,0,0,0,249,109.7Zm3.06-4.12a2.14,2.14,0,0,1,1.06,2.54c-.38.93-1.69,1.2-2.58,1.29a3.56,3.56,0,0,1-2.91-.92h0a2.59,2.59,0,0,0,.17-.38,1.35,1.35,0,0,0-1-1.81.35.35,0,0,0,.05-.08,1.85,1.85,0,0,0,2.23-1.43s.05,0,.08,0A6.59,6.59,0,0,1,252.07,105.58Zm.47-4.15a3.6,3.6,0,0,1-2.44,3.14s0,0,0,0c-.27,0-.54-.08-.81-.11h-.05c0-.12,0-.24.05-.36a3.46,3.46,0,0,0-.27-1.9.1.1,0,0,0,0,0,4.35,4.35,0,0,0,.23-1.82c.45-.52,1.27-.45,1.89-.38A1.38,1.38,0,0,1,252.54,101.43Z"/></g></g></svg>