<svg xmlns="http://www.w3.org/2000/svg" viewBox="0 0 252.4 62.85"><defs><style>.cls-1{fill:#ecd889;}.cls-2{fill:#92a489;}.cls-3{fill:#a9c55f;}</style></defs><title>newopen_newopen</title><g id="圖層_2" data-name="圖層 2"><g id="圖層_1-2" data-name="圖層 1"><path class="cls-1" d="M67.86,34.6c-18.4,2.19-40,13.09-40,13.09l13.86,5.78-4,15S72,61.63,75.68,59.93C79,58.39,70.25,43.11,67.86,34.6Z" transform="translate(-27.86 -5.64)"/><path class="cls-2" d="M56.3,51.55s16.69,7,20.12,7.62c0,0-.6-8.59-3.32-11.2S58.64,50,56.3,51.55Z" transform="translate(-27.86 -5.64)"/><path class="cls-1" d="M81.93,21.7c-18.4,2.19-34.23,5.63-33.1,11,2.63,12.42,2,21,13,18.87,4.94-1,25.78-2.7,28-4.52C92.8,44.49,84.32,30.21,81.93,21.7Z" transform="translate(-27.86 -5.64)"/><path class="cls-2" d="M73.93,41.12s14.61,6.63,16.14,5.53S89.56,40.37,88.8,39,74.6,38.8,73.93,41.12Z" transform="translate(-27.86 -5.64)"/><path class="cls-1" d="M240.27,34.6c18.4,2.19,40,13.09,40,13.09l-13.85,5.78,4,15s-34.3-6.86-37.94-8.56C229.14,58.39,237.88,43.11,240.27,34.6Z" transform="translate(-27.86 -5.64)"/><path class="cls-2" d="M251.82,51.55s-16.69,7-20.11,7.62c0,0,.59-8.59,3.31-11.2S249.48,50,251.82,51.55Z" transform="translate(-27.86 -5.64)"/><path class="cls-1" d="M226.19,21.7c18.4,2.19,34.23,5.63,33.1,11-2.63,12.42-2,21-13,18.87-4.94-1-25.77-2.7-28-4.52C215.33,44.49,223.8,30.21,226.19,21.7Z" transform="translate(-27.86 -5.64)"/><path class="cls-2" d="M234.2,41.12s-14.61,6.63-16.15,5.53.51-6.28,1.28-7.61S233.52,38.8,234.2,41.12Z" transform="translate(-27.86 -5.64)"/><path class="cls-1" d="M153.84,8.07s-89,2.15-86.37,14.57,2,21,13,18.88,50.48-8.6,73.41-8.6,62.42,6.45,73.41,8.6,10.34-6.46,13-18.88S153.84,8.07,153.84,8.07Z" transform="translate(-27.86 -5.64)"/><path class="cls-3" d="M106.63,8.43a7.78,7.78,0,0,0-.69.79c-.26.35-.12.33-.27.7a23.71,23.71,0,0,1-1.4,2.5c-.51.91-.88,1.82-1.3,2.72a14.55,14.55,0,0,0-1.18,2.54,12.74,12.74,0,0,1-.61,2.08c-.62,1.5-1.11,3-1.64,4.6-.39,1.15-.5,2.31-.87,3.52-.59,1.88-1,3.84-1.5,5.76a7.68,7.68,0,0,0-.25,1.54c0,.55-.1.86-.72,1.06a2.44,2.44,0,0,1-2.87-1.42,28.42,28.42,0,0,1-1-4.42,7.84,7.84,0,0,1-.19-2.48,8.71,8.71,0,0,0,0-.87c0-.09-.09-.53,0-.47a4.75,4.75,0,0,1-.22-1.09,11.26,11.26,0,0,0,0-1.65c0-.19-.42-3,0-3.05.07,0,0,.21.09.19a2.82,2.82,0,0,1,0-.65s0,0-.06.05,0-1.91,0-2.09c-.38.76-.56,1.15-.94,1.91s-1,1.66-1.26,2.53c-.64,1.87-1.38,3.71-2.1,5.53s-1.26,3.49-1.79,5.25a13.74,13.74,0,0,0-.81,3,2.36,2.36,0,0,1,0,.53,2.25,2.25,0,0,1-2.7,1.4c-.95-.26-1-1.13-.9-1.95s.09-1.46.09-2.25c0-1.71.32-3.45.35-5.15s.07-3.36.09-5a42.64,42.64,0,0,0-.63-8.26,51.39,51.39,0,0,1,.45,6.88,75.87,75.87,0,0,1-.22,8.52c0-1.38-.16-2.78-.11-4.17,0-.59.14-1.14.17-1.74,0,0-.08-1.12,0-1.16a.12.12,0,0,0,.06.08c0-.06,0-.1,0-.17,0,.22-.19-.54-.18-.57a8.75,8.75,0,0,0-.06-.93,9.15,9.15,0,0,0-.15-2c-.08-.35-.52-3.27-.2-3.35.07,0,.06.23.1.25a7.91,7.91,0,0,0-.1-.94c0,.07,0,.14-.06.19,0-.11-.29-1.7-.33-1.86C79.3,16.28,79.18,13.8,79.35,13a2.24,2.24,0,0,1,1.32-1.71c.18,0,.26.06.42,0s.2-.12.35-.12a2,2,0,0,1,1.49.82,4.63,4.63,0,0,1,.95,1.84c.12.41,0,.7.07,1,0,0,0-.07,0-.11s.33,1.29.24,1.36a3.06,3.06,0,0,1-.14-.56,47.22,47.22,0,0,1,.45,6c0-.38-.17-4-.13-4s.36,6.22.39,6.79c.11,2.3.28,4.57.22,6.88.47-1.17.7-1.75,1.18-2.92s.67-2.24,1.24-3.34,1-2.21,1.56-3.31c.28-.65.35-1.25.65-1.87.86-2,2.07-4.09,3-6,.1-.2,0-.39.39-.57a1.75,1.75,0,0,1,1.34.19,1.88,1.88,0,0,1,.94,1c.15.48-.13.58-.2.9l.12-.13a2.17,2.17,0,0,1-.14,1.17c-.07,0-.1-.12-.09-.26a30.47,30.47,0,0,0-.17,4.86c0-.15,0-1.45.07-2.39,0,1.85.21,5.58.24,5.94.09,1.12.31,2.34.38,3.53,0,.82,0,1.77.07,2.5,0,0,0-.08.07-.15a9.07,9.07,0,0,1,.38,1.5c.29-1.51.6-3.06,1-4.56.3-1.09.74-2.16,1-3.28a51.42,51.42,0,0,1,2.52-7.71A65.26,65.26,0,0,1,104,8.9c.51-.92,1.19-1.77,1.74-2.7.14-.23,0-.37.38-.52s1.3.34,1.57.74c0,0,0,0,0,0C108.17,7.26,107.11,7.9,106.63,8.43ZM94.92,23.12c0-.41,0-.79,0-1.28a.37.37,0,0,1,0,.11c-.05.25-.1.51-.09.4A1.9,1.9,0,0,0,94.92,23.12ZM95,18.18c0-.34,0-.52.06-.53A2.22,2.22,0,0,0,95,18.18Z" transform="translate(-27.86 -5.64)"/><path class="cls-3" d="M115.79,21.91l-.87,1.53c-.61,1-.91,1.56-1.5,2.61-.39.67-.9,1.33-1.27,2s-.74,1.53-1.22,2.24a8.76,8.76,0,0,1-1.87,2.08,2.33,2.33,0,0,1-1.71.45,4.72,4.72,0,0,1-2.5-1,1.32,1.32,0,0,1-.49-.56c-.06-.19-.14-.43-.19-.65a5.3,5.3,0,0,1,0-1.13c0-.44.12-.87.11-1.31s.06-.95,0-1.38a9.84,9.84,0,0,1-.15-1.23c0-.28.18-.58.23-.9a2.83,2.83,0,0,0-.21.62c-.06.28-.09.56-.14.81s0,.53-.1.8a2.82,2.82,0,0,0-.15.95c0,.3.12.61.13.9a4,4,0,0,0,0,.85c0,.1.12.29.13.35s0,.31,0,.48a7.62,7.62,0,0,0,.27.91,4,4,0,0,1-.79-2.8c0-1,0-2,0-3a13.72,13.72,0,0,1,1.74-5.9c.86-1.5,2.13-2.82,4.07-2.78a3.23,3.23,0,0,1,2.11.69,2.25,2.25,0,0,1,.56,2.12,7.72,7.72,0,0,1-2.16,3.61,11.82,11.82,0,0,1-1.28,1.27,8.49,8.49,0,0,1-1,.65l-.56.29c-.23.11-.27.08-.34.3a3.16,3.16,0,0,0,0,1c0,.43,0,.86-.06,1.3a6.29,6.29,0,0,0,.23,2.69c.67,1.63,3.09-1.47,3.53-2,.3-.35.55-.73.81-1.08s.32-.43.43-.65a1,1,0,0,0,0-.24,15.89,15.89,0,0,1,1.19-2.06c.5-.79,1-1.61,1.42-2.46.25-.48.79-1.82,1.49-1v0s0,0,0,0C116,21.5,115.93,21.69,115.79,21.91ZM107,24.12a10.33,10.33,0,0,0,2.54-2.7l.48-.83c.07-.18.25-.32.27-.52s-.09-.29-.08-.49,0-.44,0-.72-.31-1.18-.82-1a1.66,1.66,0,0,0-.54.64l-.5.89a20.29,20.29,0,0,0-1.08,3.49.54.54,0,0,1,0,.11C107.12,23.35,107.08,23.73,107,24.12Z" transform="translate(-27.86 -5.64)"/><path class="cls-3" d="M140.34,21.38A22.17,22.17,0,0,1,139,24.29a27.25,27.25,0,0,1-1.89,3,4.89,4.89,0,0,1-2.38,2.09,2.43,2.43,0,0,1-2.63-1.54c-1-1.91-.59-4-.11-6a3.54,3.54,0,0,1,0-.54c-.31.53-.76,1.18-1,1.67-.37.67-.62,1.33-1,2-.19.32-2.73,3.89-3.16,3.36,0,0,.39-.21.35-.27a1.85,1.85,0,0,1-1.43.33c.11.06.18.09.15.09-.79.18-1.53-1-1.76-1.49a6.36,6.36,0,0,1-.33-2.9,15,15,0,0,1,1.86-6,5,5,0,0,1,1-1.27,5.7,5.7,0,0,1,.81-.54,2.55,2.55,0,0,1,1.7-1c1.74-.15,2.61,1.67,3.07,2.92.77-1.11,2.19-2.6,3.62-1.18.77.75.35,1.39,0,2.15a14.64,14.64,0,0,0-1.19,3.93c0-.1.09-.61.23-.66s-1.66,7.67,1.61,3.16c1-1.39,1.83-2.83,2.69-4.26.37-.67.75-1.37,1.17-2,.19-.28.78-.94.87-.22S140.58,20.72,140.34,21.38Zm-9.13-1.84c0-.27-.89-2.05-.73-2.2a8.78,8.78,0,0,1,.48,1c-.14-.39-.39-1.62-1-1.57-1.17.1-1.87,2.22-2.19,3a19,19,0,0,0-1.16,4.91c0-.52,1.53-6.76,2.17-6.78-.49.14-1.87,5.47-1.94,5.94,0,.27-.43,2.08.1,2.19.36.07,1.1-1.05,1.25-1.3.6-.82,1.15-1.68,1.68-2.57l.8-1.32c.12-.24.29-.5.43-.74A.65.65,0,0,0,131.21,19.54Zm.08-.24,0,.33C131.42,19.52,131.41,19.42,131.29,19.3Zm1,1.54-.15.24c0,.11-.1.59-.1.59Z" transform="translate(-27.86 -5.64)"/><path class="cls-3" d="M152.73,20.25a14.24,14.24,0,0,1-1,1.66c-.79,1.16-1.63,2.34-2.45,3.49a17.72,17.72,0,0,1-2.76,3.2A22.33,22.33,0,0,1,144.67,30s0-.07.07-.11l-.24.11c.17,0-.47.42-.64.49a2,2,0,0,1-1.43-.24,2.43,2.43,0,0,1-.94-1.11,3.54,3.54,0,0,1-.34-2.24c0-.17.43-2.14.68-2.12.07,0-.06.28,0,.31.08-.34.12-.51.21-.85a39.15,39.15,0,0,1,1.77-4.11,3.32,3.32,0,0,1-3.17-.58c-.22-.26-.16-.5-.24-.7s-.27-.39-.35-.62c-.43-1.63,1.51-4,3.26-3l-.07-.1c0-.2.49.3.51.46s-.24,1.08-.42,1a5,5,0,0,1,.19-.64c-.23.64-.94,1.39-1,2.05,0,.5.24.49.7.58.67.13,1.73,0,2.59.22a11.62,11.62,0,0,0-1.71-.22,0,0,0,0,1,0,0c.53.05,1.09,0,1.56.12,1,.2,1.69.57,1.29,1.61s-.91,2-1.32,3-.7,2-1.05,3c-.09.34-.81,1.78-.52,2.1s2.22-1.35,2.72-1.91c-.1.11-.2.11-.27.18a10.06,10.06,0,0,1,.77-1.1l1-1.27c.72-1,1.09-1.46,1.83-2.43s1.13-1.52,1.88-2.53c.18-.2,1-1.39,1.23-.53C153.28,19.26,152.92,19.84,152.73,20.25Zm-10.56,9.38s-.08-.07-.08-.1l0,0c-.19-.36-.38-.72-.46-.92l.13.43-.17-.7v0a.24.24,0,0,1,0-.1.08.08,0,0,0,0,.06v-.17a5.45,5.45,0,0,1,0-1.34v0a4.64,4.64,0,0,0-.07.92,4.71,4.71,0,0,0,.16,1.27,5.35,5.35,0,0,0,.56.92s0-.07,0-.07a2.05,2.05,0,0,0,.81.44,2,2,0,0,1-.89-.64Zm-.54-2.91v0s0-.06,0-.1S141.63,26.69,141.63,26.72Zm.08-.64c0,.07,0,.1,0,.13S141.71,26.15,141.71,26.08Zm.07,0a19.62,19.62,0,0,1,.87-2.55c.25-.6.37-.91.61-1.51a19.29,19.29,0,0,1,1-2.08c-.25.07-.69,1.3-.76,1.4a14.77,14.77,0,0,0-.78,1.78A17.33,17.33,0,0,0,141.78,26.07Zm.2,3.29s0-.06,0-.06S142,29.33,142,29.36Zm.57-11.19a0,0,0,0,1,0,0Zm0,0a1.51,1.51,0,0,0,.26.23,1.38,1.38,0,0,0,.71.21,1.73,1.73,0,0,1-.82-.17A.41.41,0,0,1,142.55,18.2Zm3.95,2.73c-.28.61-.41.92-.69,1.54.28-.61.41-.91.69-1.51Zm0,0h0v0Zm0,0h0v0Z" transform="translate(-27.86 -5.64)"/><path class="cls-3" d="M164,19.48l-1.13,1.35-1.94,2.32c-.5.59-1.12,1.16-1.61,1.75a25.35,25.35,0,0,1-1.59,2,8.73,8.73,0,0,1-2.2,1.73,2.32,2.32,0,0,1-1.77.16,4.71,4.71,0,0,1-2.29-1.44,1.32,1.32,0,0,1-.38-.64c0-.2-.07-.45-.08-.67a6.22,6.22,0,0,1,.17-1.11c.08-.43.28-.84.35-1.28s.23-.92.28-1.34a8.81,8.81,0,0,1,.07-1.25c.07-.27.28-.54.38-.84a3,3,0,0,0-.31.57c-.11.27-.19.54-.28.78s-.14.51-.25.77a3.16,3.16,0,0,0-.31.91c0,.3,0,.62,0,.91A4.75,4.75,0,0,0,151,25c0,.1.07.3.07.37s-.07.3-.07.47.08.6.11.94a4,4,0,0,1-.29-2.89c.17-1,.32-2,.55-3a14,14,0,0,1,2.77-5.52c1.11-1.33,2.58-2.41,4.51-2.05a3.23,3.23,0,0,1,2,1,2.24,2.24,0,0,1,.18,2.19A8.07,8.07,0,0,1,158,19.78a12.28,12.28,0,0,1-1.49,1,7.87,7.87,0,0,1-1.13.46l-.6.2c-.25.06-.28,0-.39.23s-.08.68-.14,1-.19.84-.29,1.28a6.59,6.59,0,0,0-.25,2.69c.4,1.69,3.32-.93,3.84-1.39.36-.3.67-.64,1-.93s.39-.37.54-.57a1.07,1.07,0,0,0,.07-.23,16.41,16.41,0,0,1,1.54-1.83c.63-.7,1.22-1.42,1.84-2.19.32-.43,1.09-1.65,1.64-.73v0s0,0,0,0C164.3,19.11,164.19,19.28,164,19.48Zm-9.09.68a10.53,10.53,0,0,0,3-2.23l.61-.74c.11-.16.3-.27.36-.46s0-.31,0-.51l.15-.7c0-.34-.12-1.23-.63-1.12-.24,0-.5.37-.65.53l-.65.8A22.38,22.38,0,0,0,155.42,19a.2.2,0,0,1,0,.1C155.21,19.42,155.1,19.79,154.92,20.16Z" transform="translate(-27.86 -5.64)"/><path class="cls-3" d="M184.16,21.8c-.07,0-.54.08-.5.05-.36.1-.31.08-.56.35a14.54,14.54,0,0,0-.9,1.17c-.15.12-1.58,1.78-1.81,1.65,0,0,.31-.31.28-.34l-1.12,1c.12-.09.19-.11.19-.08-.27.55-1.48,1.12-2,1.44a4.57,4.57,0,0,1-2.05.71,4.22,4.22,0,0,1-2.08-.54c-2-1.13-3-3.89-1.72-5.86A21.76,21.76,0,0,1,174,18.18a7.22,7.22,0,0,1,1.82-1.41,5.87,5.87,0,0,1,1-.42c.25-.09.8-.12,1-.23s.51-1,.68-1.22a5.93,5.93,0,0,1,.57-.73,5.84,5.84,0,0,1,2-1.57,2.85,2.85,0,0,1,3.23,1.14s.57.43.52.63l-.13-.15.11.28,0,0c-.08-.28.29.26.29.26a2.72,2.72,0,0,1,.27.91,4.14,4.14,0,0,1-.15,1.44,23.1,23.1,0,0,1-1.3,3.62c1.07-.07,2.15-.19,3.19-.29.25,0,.52-.18.67.07,0,.07,0,0,0,0C188.69,21.93,184.56,21.77,184.16,21.8Zm-3.3-.21c-1.53-.34-3.37-1.14-3.61-2.85a12.56,12.56,0,0,0-1.45,2l.24-.29c-.1.33-3.93,6-1,5.79h0C177.53,26,179.65,23.44,180.86,21.59Zm2.42-7.37c-.56-1.09-2.07.28-2.67.9a0,0,0,0,0,0,0l0,.06v0c0,.06-.08.09,0,.1a6.74,6.74,0,0,0-.68.75s.48-.6.51-.5-.68,1.22-.81,1.42a6.45,6.45,0,0,0-.61,1.6c-.12.56-.25,1.19.21,1.63a2.25,2.25,0,0,0,1.09.44,3.79,3.79,0,0,0,.88.11c.33-.05.24.06.45-.26a10.68,10.68,0,0,0,1.28-2.92C183.08,16.76,183.74,15.1,183.28,14.22Zm-2.67.9,0,0S180.61,15.15,180.61,15.12Z" transform="translate(-27.86 -5.64)"/><path class="cls-3" d="M205.68,23.2c-.43.85-1.37,1-2.07,1.43a20.71,20.71,0,0,1-1.94,1c-.5.22-1,.05-1.37.33,0,0,0,0,0,0a2.79,2.79,0,0,1-.52.33,8.37,8.37,0,0,0-.82.48c-.54.26-.86.07-1.23.19h0a18.37,18.37,0,0,0-2.29,1.83c-.65.52-1.31,1-1.91,1.46s-1.6,1.36-2.35,1.26-1.37-1.69-1.49-2.34c-.18-.94.22-.58.82-.64.85-.08,1.74-1,2.36-1.47.84-.65,1.62-1.4,2.47-2.09a4.6,4.6,0,0,0,.9-.75c0-.09.31-.63.45-.61a.74.74,0,0,1-.14.21l.26-.26c-.12.05.26-.54.3-.57.23-.34.49-.64.76-1a8.24,8.24,0,0,0,1.35-2c.17-.35.65-1.68-.12-1.69-.28,0-2.1.95-2.16.9s.25-.2.22-.24a11.37,11.37,0,0,0-1,.77.77.77,0,0,1,.23-.1c-.32.19-3.67,3.52-4,3.82-.67.65-1.23,1.39-1.87,2.11a9.39,9.39,0,0,1-1,1.15,2.89,2.89,0,0,0-.53.27,20,20,0,0,0-1.29,1.73c-.53.67-1.11,1.43-1.65,2.09A12.45,12.45,0,0,0,184.84,33c-.27.54-.58,1-.81,1.52a.54.54,0,0,1,.2-.24,5.8,5.8,0,0,1-.37,1.24l-.5,1.5c-.37,1.07-.68,2.18-1,3.26-.08.4-.18,1.16-.55,1.46-.83.61-1.62-.67-1.86-1.27-.68-1.71.44-4.22.91-5.93a14.48,14.48,0,0,1,1.27-3.27,10,10,0,0,0,.6-.9s.16-.73.26-.75,0,.07,0,.1a.73.73,0,0,1,.09-.22c-.21.28.07-.5.07-.54.15-.35.33-.67.48-1a13,13,0,0,0,.79-1.8c.1-.26,1.33-2.95,1.67-2.84.07,0-.1.22-.07.26a9,9,0,0,0,.47-.85.39.39,0,0,1-.16.15s1.76-3.31,1.95-3.65c.37-.63.64-1.28,1-1.94a2.65,2.65,0,0,0,.3-.58c0-.13-.14-.22-.13-.35a1.33,1.33,0,0,1,1.87-1.25,2.06,2.06,0,0,1,1.12,1.28c.21.6,0,.81-.16,1.3l.13-.15c.15,0-.34,1.38-.54,1.31a4.71,4.71,0,0,1,.19-.58c-.42.89-.86,1.75-1.31,2.6v0c-.12.22-.18.32-.29.54a1.73,1.73,0,0,1-.19.31c-1.17,2.22-3,6-3.22,6.5.34-.5.73-1,1.11-1.45l-.66.69s4.22-4.93,4.64-5.38c1.52-1.62,3.07-3.31,4.78-4.82.75-.64,2.07-1.84,3.22-1.59,1.88.41,2,2.53,1.76,3.85.06-.16.14-.46.21-.41.48.35-.73,2.67-.94,3.05a17.72,17.72,0,0,1-2.12,3c.75-.26,1.45-.6,2.18-.92a10.49,10.49,0,0,1,2.05-.31s-.1,0-.09-.09c-.06-.28,1.89-.48,2.06-.51S205.54,23.21,205.68,23.2ZM181.62,34.35s0,0,0,.06S181.62,34.38,181.62,34.35Zm5.25-10.43a7.1,7.1,0,0,1-.9,1.68c-.73,1.3-1.6,2.58-2.22,3.93s-1.49,3-2.07,4.59a24,24,0,0,1,1.59-3.26c.69-1.2,1.39-2.47,2-3.75.3-.61.58-1.24.91-1.82a4.93,4.93,0,0,0,.7-1.27v0A.13.13,0,0,0,186.87,23.92Zm.92,2.32a7.89,7.89,0,0,0,.5-1C188.1,25.54,187.94,25.92,187.79,26.24Zm.72-1.39s0,0,0,0Zm2.24-4.05a.19.19,0,0,0,.09-.12Zm.27-.4-.18.28Zm0,0a.72.72,0,0,1,.14-.26A2.15,2.15,0,0,1,191,20.4Zm1.57,1.26s0,0-.05.07v0C192.58,21.7,192.63,21.64,192.59,21.66Zm.46-.44.8-.84C193.56,20.65,193.3,21,193.05,21.22Zm6.21,3.87c-.12.05-.29.06-.34.15Z" transform="translate(-27.86 -5.64)"/><path class="cls-3" d="M216.09,26.18c-.55.44-.82.67-1.36,1.12l-2.35,1.91c-.6.49-1.31.93-1.9,1.43s-1.24,1.17-1.95,1.67a8.85,8.85,0,0,1-2.48,1.29,2.29,2.29,0,0,1-1.76-.17,4.67,4.67,0,0,1-2-1.84,1.23,1.23,0,0,1-.26-.7c0-.2,0-.45.06-.67a5,5,0,0,1,.38-1.06c.15-.41.43-.77.58-1.19s.4-.86.53-1.27a9.36,9.36,0,0,1,.31-1.21c.12-.25.37-.47.54-.75-.15.18-.36.34-.42.5s-.29.5-.43.71-.23.48-.39.71a3.33,3.33,0,0,0-.48.84c-.09.29-.1.61-.2.88a4.8,4.8,0,0,0-.29.8c0,.1,0,.31,0,.38s-.12.28-.15.45A9.15,9.15,0,0,0,202,31a4,4,0,0,1,.27-2.89c.36-1,.68-1.89,1.11-2.8a13.48,13.48,0,0,1,3.77-4.9c1.35-1.11,3-1.89,4.82-1.18a3.25,3.25,0,0,1,1.71,1.37,2.27,2.27,0,0,1-.25,2.19,8.07,8.07,0,0,1-3.33,2.61,11.31,11.31,0,0,1-1.66.74,6.78,6.78,0,0,1-1.19.24l-.63.09c-.25,0-.28,0-.42.16s-.21.65-.34,1-.33.79-.52,1.2a6.62,6.62,0,0,0-.76,2.59c.07,1.74,3.42-.29,4-.65.4-.23.78-.5,1.15-.73.21-.17.45-.29.62-.46a.82.82,0,0,0,.12-.22,16.25,16.25,0,0,1,1.86-1.5c.75-.57,1.47-1.18,2.22-1.81.4-.36,1.39-1.42,1.75-.42v0s0,0,0,0C216.45,25.87,216.31,26,216.09,26.18Zm-9-1a10.51,10.51,0,0,0,3.36-1.64l.74-.61c.14-.14.35-.21.44-.39s0-.3.11-.49.17-.4.28-.66.13-1.23-.4-1.22a1.72,1.72,0,0,0-.74.4l-.79.67a21,21,0,0,0-2.28,2.88.34.34,0,0,1-.06.09C207.48,24.49,207.31,24.84,207.06,25.17Z" transform="translate(-27.86 -5.64)"/><path class="cls-3" d="M225.83,30.79c-1,.72-1.91,1.54-2.94,2.17-.76.47-2,1.26-2.91.74-.19-.12-1.27-1.07-1.2-1.23l.08.09-.15-.24c.11.3-.19-.11-.22-.12a2.47,2.47,0,0,1-.25-.72,2.51,2.51,0,0,1,.06-1.13c.09-.36.24-.7.36-1.05a9.42,9.42,0,0,1,.87-2c.11-.15,1.29-1.8,1.51-1.68s-.16.2-.13.24l.71-.79a1,1,0,0,1-.22.12,7.24,7.24,0,0,1,.76-.82c-.88.58-1.63,1.23-2.44,1.87a15.71,15.71,0,0,0-1.65,1.13,38.38,38.38,0,0,0-3,3L215,30c-.78.58-1.51-.49-1.71-1.11a2.1,2.1,0,0,1,.22-1.54,8.49,8.49,0,0,1,.58-1.56c.37-.64.82-1.24,1.24-1.86s.81-1.26,1.25-1.88a12.93,12.93,0,0,0,1-1.27c.17-.33.15-.59.66-.74a2,2,0,0,1,1.35.18c.53.21,1.4,1,.6,1.69-.31.24-.81.47-1.16.73s-.41.46-.65.85-.47.42-.67.64a8,8,0,0,0-.78,1.13,4.83,4.83,0,0,0-.24.7c-.24.67-.64,1.31-.88,2,.07-.13.36-.3.39-.26s-.48.51-.45.52l2.7-2.34c-.58.45-1,.76-1,.76s5.25-4.08,5.84-4.38c1.23-.64,2.48-.27,2.58,1.37S223.85,26,222.73,27A17.32,17.32,0,0,0,221,28.8a6.45,6.45,0,0,0-1.34,1.89,6.33,6.33,0,0,1,.93-1.27A4.49,4.49,0,0,1,222.25,28c-.35.36-.72.69-1,1l.22-.16a6,6,0,0,1-.64,1.09,5.45,5.45,0,0,0-.62,1.17,3.18,3.18,0,0,0-.14.55l0,0s.25,0,.33,0a5.25,5.25,0,0,0,1.66-.6c1-.41,2-.9,2.88-1.36a19.39,19.39,0,0,0,2.23-1.13c.28-.24.91-.62.86.18S226.38,30.37,225.83,30.79Z" transform="translate(-27.86 -5.64)"/></g></g></svg>