<?xml version="1.0" encoding="utf-8"?>
<!-- Generator: Adobe Illustrator 19.1.0, SVG Export Plug-In . SVG Version: 6.00 Build 0)  -->
<svg version="1.1" id="圖層_1" xmlns="http://www.w3.org/2000/svg" xmlns:xlink="http://www.w3.org/1999/xlink" x="0px" y="0px"
	 viewBox="0 0 500 220" style="enable-background:new 0 0 500 220;" xml:space="preserve">
<style type="text/css">
	.st0{fill:#86C166;}
	.st1{fill:#4A593D;}
	.st2{fill:#4A593D;stroke:#4A593D;stroke-width:0.25;stroke-miterlimit:10;}
</style>
<path class="st0" d="M134.6,86.4c3.2,0,5.6,1.4,5.6,3.8c0,2.8-6.9,12.6-14.4,19.7c-10.9,10.3-28.4,22.8-77.8,23c-1.2,0-3,0-3-2
	c0-1.9,1.9-1.9,2.7-1.9c19-0.3,38-3.6,49.5-8.4c-1.2-0.8-1.5-1.6-2.7-3.8c-1.5-3.1-3.7-7-6.9-11.7c-0.4-0.6-0.8-1.3-0.8-1.8
	c0-1,1-1.7,1.9-1.7c1.2,0,7.1,5.1,8.8,6.6c6.4,5.7,6.9,6.9,6.8,8.9c17.3-10,25.4-24.6,25.4-25.3c0-0.9-0.6-1.4-1.7-1.4l-29,0.2
	C82,101.7,61,107.7,59.3,107.7c-1.1,0-1.9-0.8-1.9-1.9c0-1.3,0.9-1.7,3-2.5c14.8-5.1,30.8-13.7,42.5-26.3c2.9-3.1,3.4-3.8,5.5-3.8
	c2.5,0,4.6,2.1,4.6,4.6c0,2.5-1.1,3.8-8,8.7L134.6,86.4z M78.5,48.2C68.1,58.7,52.7,68,51.1,68c-1.1,0-1.9-0.9-1.9-1.9
	c0-1.1,0.6-1.5,1.7-2.3c4.2-2.9,13.9-10.3,23.9-24.4c2.4-3.6,3.2-4.6,5.6-4.6c2.5,0,4.6,2,4.6,4.6c0,1.9-0.9,3.1-2.7,5l36.9-0.2
	c2.7,0,5,1.4,5.1,3.9c0,4.2-13.8,16-23.5,22.4C75.7,87,50,91.8,49.3,91.8c-1,0-1.9-0.6-1.9-1.9c0-1.2,0.8-1.6,1.8-1.9
	c13.9-4.2,21.1-6.3,31.8-12.3c-1.1-0.7-1.3-1.2-3.1-5c-1.6-3.5-3.7-6.8-5.3-9.5c-0.3-0.5-0.5-1.1-0.5-1.7c0-1,0.8-1.8,1.9-1.8
	c1.1,0,6.2,4.6,7.9,6c3.1,2.8,6.1,5.4,6.3,7.9c14-9.1,23.9-20.6,23.9-22.1c0-1-0.7-1.3-2.2-1.3L78.5,48.2z"/>
<g>
	<path class="st1" d="M137.4,161.9l-2,1.5l-1.9-1.6l-2,1.5l1.9,1.6l-2,1.5l-1.9-1.6l-2,1.5l-1.9-1.6l2-1.5l-1.9-1.6l-2,1.5l-1.9-1.6
		l2-1.5l-1.9-1.6l2-1.5l1.9,1.6l2-1.5l-1.9-1.6l2-1.5l1.9,1.6l2-1.5l1.9,1.6l-2,1.5l1.9,1.6l2-1.5l1.9,1.6l-2,1.5L137.4,161.9z
		 M131.6,160.3l-1.9-1.6l-2,1.5l1.9,1.6L131.6,160.3z"/>
	<path class="st1" d="M157.3,174.3c-0.2,1.2-0.7,2.2-1.7,3c-1,0.8-2,1.3-3.2,1.3c-1.2,0-2.1-0.4-2.9-1.3c-0.7-0.8-1-1.8-0.8-3
		l0.3-1.8h2.5l-0.3,1.8c-0.1,0.5,0,0.9,0.4,1.3c0.3,0.4,0.7,0.5,1.2,0.5c0.5,0,1-0.2,1.4-0.5c0.4-0.4,0.6-0.8,0.7-1.3l0.3-1.8
		c0.2-1.4-0.2-2.4-1.2-3.1c-0.9-0.6-1.8-1.1-2.7-1.7c-0.9-0.9-1.3-2.2-1-4.2l0.3-2.1c0.2-1.2,0.7-2.2,1.7-3c1-0.8,2-1.3,3.2-1.3
		c1.2,0,2.1,0.4,2.9,1.3c0.7,0.8,1,1.8,0.8,3l-0.3,1.8h-2.5l0.3-1.8c0.1-0.5-0.1-0.9-0.4-1.3c-0.3-0.4-0.7-0.5-1.2-0.5
		s-1,0.2-1.4,0.5c-0.4,0.4-0.7,0.8-0.7,1.3l-0.3,1.8c-0.2,1.4,0.2,2.4,1.2,3.1c0.9,0.6,1.8,1.1,2.7,1.7c0.9,0.9,1.3,2.3,1,4.2
		L157.3,174.3z"/>
	<path class="st1" d="M172.6,174.3c-0.2,1.2-0.7,2.2-1.7,3c-1,0.8-2,1.3-3.2,1.3c-1.2,0-2.1-0.4-2.9-1.3c-0.7-0.8-1-1.8-0.8-3
		l2.4-17.2h2.5l-2.4,17.2c-0.1,0.5,0,0.9,0.4,1.3c0.3,0.4,0.7,0.5,1.2,0.5c0.5,0,1-0.2,1.4-0.5c0.4-0.4,0.6-0.8,0.7-1.3l2.4-17.2
		h2.5L172.6,174.3z"/>
	<path class="st1" d="M187.8,174.3c-0.2,1.2-0.7,2.2-1.7,3c-1,0.8-2,1.3-3.2,1.3c-1.2,0-2.1-0.4-2.9-1.3c-0.7-0.8-1-1.8-0.8-3
		l1.8-12.9c0.2-1.2,0.7-2.2,1.7-3c1-0.8,2-1.3,3.2-1.3c1.2,0,2.1,0.4,2.9,1.3c0.7,0.8,1,1.8,0.8,3l-0.3,1.8h-2.5l0.3-1.8
		c0.1-0.5-0.1-0.9-0.4-1.3c-0.3-0.4-0.7-0.5-1.2-0.5s-1,0.2-1.4,0.5c-0.4,0.4-0.7,0.8-0.7,1.3l-1.8,12.9c-0.1,0.5,0,0.9,0.4,1.3
		c0.3,0.4,0.7,0.5,1.2,0.5c0.5,0,1-0.2,1.4-0.5c0.4-0.4,0.6-0.8,0.7-1.3l0.3-1.8h2.5L187.8,174.3z"/>
	<path class="st1" d="M203.1,174.3c-0.2,1.2-0.7,2.2-1.7,3c-1,0.8-2,1.3-3.2,1.3c-1.2,0-2.1-0.4-2.9-1.3c-0.7-0.8-1-1.8-0.8-3
		l1.8-12.9c0.2-1.2,0.7-2.2,1.7-3c1-0.8,2-1.3,3.2-1.3c1.2,0,2.1,0.4,2.9,1.3c0.7,0.8,1,1.8,0.8,3l-0.3,1.8h-2.5l0.3-1.8
		c0.1-0.5-0.1-0.9-0.4-1.3c-0.3-0.4-0.7-0.5-1.2-0.5c-0.5,0-1,0.2-1.4,0.5c-0.4,0.4-0.7,0.8-0.7,1.3l-1.8,12.9
		c-0.1,0.5,0,0.9,0.4,1.3c0.3,0.4,0.7,0.5,1.2,0.5c0.5,0,1-0.2,1.4-0.5c0.4-0.4,0.6-0.8,0.7-1.3l0.3-1.8h2.5L203.1,174.3z"/>
	<path class="st1" d="M218.3,174.3c-0.2,1.2-0.7,2.2-1.7,3c-1,0.8-2,1.3-3.2,1.3c-1.2,0-2.1-0.4-2.9-1.3c-0.7-0.8-1-1.8-0.8-3
		l2.4-17.2h2.5l-2.4,17.2c-0.1,0.5,0,0.9,0.4,1.3c0.3,0.4,0.7,0.5,1.2,0.5c0.5,0,1-0.2,1.4-0.5c0.4-0.4,0.6-0.8,0.7-1.3l2.4-17.2
		h2.5L218.3,174.3z"/>
	<path class="st1" d="M236.8,178.6h-7.4l3-21.5h2.5l-2.7,19h4.9L236.8,178.6z"/>
	<path class="st1" d="M255.7,178.6h-7.4l3-21.5h7.4l-0.3,2.5h-4.9l-1,7.1h4.9l-0.3,2.4h-4.9l-1,7.1h4.9L255.7,178.6z"/>
	<path class="st1" d="M279.1,178.6h-2.8l-1.6-12.4l-1.7,12.4h-2.5l3-21.5h2.8l1.6,12.4l1.7-12.4h2.5L279.1,178.6z"/>
	<path class="st1" d="M303,159.6h-2.8l-2.7,19h-2.5l2.7-19h-3.1l0.3-2.5h8.3L303,159.6z"/>
</g>
<g>
	<path class="st0" d="M370.5,108.3v-9.9c0-0.9,0-4.8,4-4.8c3.5,0,4,3.2,4,4.8v9.9h14c0.8,0,2.4,0.1,2.4,1.9c0,1.7-1.6,1.9-2.4,1.9
		h-20.6v15.1h9.7c9.3,0,10.2,6.2,10.2,8.6c0,9.9,0,26.5-1.3,35.4c-1.9,12.6-8.8,12.6-13.9,12.6h-7c-0.8,0-2.4-0.2-2.4-1.9
		c0-1.7,1.5-1.9,2.4-1.9h4.2c6.5,0,7.9-3.4,8.6-6.9c1.3-6.6,1.4-22.3,1.4-36.3c0-3.4-0.3-5.7-5.6-5.7h-6.2
		c-0.3,15.5-1.2,32.4-11.3,46.4c-1.5,2-4.6,6.1-6.4,6.1c-1,0-1.9-0.9-1.9-1.9c0-0.9,3-4.9,3.6-5.9c4.7-7.8,7.7-17.6,7.7-42.4v-21.2
		h-8c-0.8,0-2.4-0.2-2.4-1.9s1.5-1.9,2.4-1.9H370.5z M448.3,103.7c0.9,0,2.4,0.2,2.4,1.9s-1.6,1.9-2.4,1.9h-39
		c-5.6,8.9-13.6,18.3-15.3,18.3c-1.1,0-1.9-0.9-1.9-1.8c0-0.6,0.2-1.1,1.1-2.4c5.2-7,10.2-16.4,13.4-28.8c0.8-2.8,1.5-5.7,5.2-5.7
		c2.8,0,4.9,2.4,4.9,4.7c0,2.4-3.5,8.8-5.2,11.7H448.3z M407.1,141.9c-4.5,3.7-8.8,6.9-9.8,6.9c-0.9,0-1.8-0.8-1.8-1.9
		c0-0.6,0.1-1.1,1.6-2.5c7.3-6.8,14-14.2,19.3-22.4c4.6-7.1,5-7.3,7.1-7.3c2.4,0,4.5,1.8,4.5,4.5c0,1.3-0.4,2.3-1.8,3.9
		c-0.3,0.4-4.9,6-10.9,11.7v45.2c0,0.9,0,5-4.1,5c-3.6,0-4.1-3.4-4.1-5V141.9z M440.5,131.8c1.3-2.4,2.5-3.8,4.6-3.8
		c2.4,0,4.2,1.9,4.2,4.1c0,3.5-9.8,12.8-17.5,18.5c4.4,14.2,11.9,22.8,17.8,28.8c0.8,0.7,1.1,1.3,1.1,1.9c0,1.2-0.9,1.9-1.8,1.9
		c-1.9,0-9.7-7.3-15.6-15.5c-10.8-14.9-13.4-29-13.4-31.4c0-2.7,2.4-4.4,4.6-4.4c1.7,0,3.5,0.9,4.2,3.1c0.4,1.6,1.4,8.4,1.8,10.6
		C434.7,141.2,438.2,135.7,440.5,131.8z"/>
	<ellipse transform="matrix(0.9491 0.315 -0.315 0.9491 54.589 -136.4445)" class="st0" cx="449.4" cy="100.7" rx="5.3" ry="7"/>
	<ellipse transform="matrix(0.8991 -0.4377 0.4377 0.8991 4.3646 204.4183)" class="st0" cx="445.7" cy="92.7" rx="2.3" ry="3.5"/>
</g>
<g>
	<path class="st0" d="M359.4,79.7c0-3.3-2.7-6-6-6c-3.3,0-6,2.7-6,6c0,0.8,0.2,1.6,0.5,2.2h-53.8c-0.8,0-2.4,0.2-2.4,1.9
		c0,1.7,1.6,1.9,2.4,1.9H328v91.1c0,7.5-4.5,14.5-11.5,17.3l0,0c-1.3,0.5-2.3,1.8-2.3,3.3c0,2,1.6,3.6,3.6,3.6
		c0.1,0,0.2-0.1,0.4-0.1l0,0.1c0,0,4.6-0.7,8.8-4c6.3-4.8,9.6-12.7,9.6-20.7V85.8h17.4c0.5,0,1.2-0.1,1.7-0.6
		C357.9,84.4,359.4,82.2,359.4,79.7z"/>
	<path class="st0" d="M300,55.6h49.6c0,0,0.1,0,0.1,0c0,0,0,0,0,0c0,0,0.1,0,0.1,0c0.2,0,0.5-0.1,0.8-0.2c2.2-0.4,3.9-2.3,3.9-4.6
		c0-2.6-2.1-4.8-4.8-4.8s-4.8,2.1-4.8,4.8c0,0.3,0.1,0.6,0.2,0.9H300c-0.7,0-2.4,0.2-2.4,1.9C297.6,55.4,299.2,55.6,300,55.6z"/>
	<path class="st0" d="M260.2,65.4c3.5,0,29.7-19.6,29.7-25.5c0-2.8-2.6-4.7-4.6-4.7c-2.8,0-3.8,1.5-5.6,4.6
		c-1.8,2.9-7,11.7-19.8,21.6c-1.1,0.8-1.6,1.2-1.6,2.1C258.2,64.5,259.2,65.4,260.2,65.4z"/>
	<path class="st0" d="M288.4,57.6c-2.8,0-3.8,1.8-5.7,5.2c-4.6,8-10.6,16.4-22.9,26.8c-1.4,1.2-1.7,1.5-1.7,2.5
		c0,1.1,0.9,1.9,1.8,1.9c1.6,0,9.9-6.2,15-10.7v44.3c0,1.4,0,4.9,4.1,4.9c4.3,0,4.3-3.8,4.3-4.9V75.4c3.3-3.4,9.7-10.3,9.7-13.2
		C293,59.7,290.9,57.6,288.4,57.6z"/>
</g>
<g>
	<path class="st0" d="M204.7,89.6c2.1,13.5,12.2,19,23.9,23.6c1.6,0.6,2.4,1,2.4,2.2c0,1.1-1,1.8-1.8,1.8c-0.2,0-18.8-3.4-28.3-21.8
		c-7.3,13.6-26.8,22-29.3,22c-0.8,0-1.7-0.7-1.7-1.8s0.3-1.3,2.5-2.4c10.7-5.6,21.6-9.1,23.3-23.8l0.2-3.7c0-0.1,0.2-6.4,0.3-6.8
		c0.6-2.1,2.6-3.1,4.1-3.1c4.5,0,4.5,4.2,4.5,5.7c0,0.7,0-1.1-0.2,4.1L204.7,89.6z"/>
	<path class="st0" d="M232.4,49.8h-27.6c0.2-5.5,0.2-8,0.2-8.8c0-1.6,0-6-4.7-6c-1.5,0-3.6,1-4.3,3.2c-0.1,0.3-0.3,11.5-0.3,11.6
		h-27.8c-10.3,0-11.8,4.4-11.8,10.7v66.8c0,1.8,0.4,5.2,4.2,5.2c3.6,0,4.1-3.3,4.1-5.2V61.3c0-6.2,1-7.6,7.6-7.6h23.5
		c-1.8,15.5-13.3,24.4-24.6,30.3c-2.4,1.2-2.7,1.4-2.7,2.6s1,1.9,1.8,1.9c2.7,0,23.2-8.8,30.9-23.2c10,19.4,29.6,23,29.8,23
		c0.9,0,1.9-0.8,1.9-1.9c0-1.3-0.9-1.7-2.6-2.4c-12.3-4.9-23.4-15.8-25.6-30v-0.2h23.6c6.4,0,7.6,1.2,7.6,7.6v67.3h0
		c0.1,2.2,1.9,4,4.2,4c2.3,0,4.1-1.8,4.2-4h0v-68C244.1,55.6,243.8,49.8,232.4,49.8z"/>
</g>
<g>
	<path class="st2" d="M380.9,58.6c-1,1.5-2.4,3-4.6,4.4c-0.4,0.3-1.5,1-1.8,1c-0.2,0-0.4-0.2-0.4-0.5c0-0.2,0.1-0.3,0.7-0.6
		c1.4-0.8,4.2-2.8,5.8-7c0.2-0.6,0.4-1.1,1.1-1.1c0.5,0,0.8,0.4,0.7,0.9c0,0.3-0.1,0.4-1,2h7.8c0.8,0,1.3,0.4,1.2,1.1
		c0,0.1-1.1,3.8-3.6,6.9c-1.7,2.1-4.2,4.2-8.7,5.3c-0.9,0.2-3.5,0.8-4.2,0.8c-0.3,0-0.4-0.2-0.4-0.5c0.1-0.4,0.4-0.4,0.9-0.5
		c3.3-0.4,6.6-1.5,9.7-4.1c-0.5,0-0.7-0.3-0.9-0.7c-0.8-1.3-2.2-2.3-3.8-3.2c-0.2-0.1-0.4-0.2-0.3-0.5c0-0.3,0.3-0.5,0.5-0.5
		c0.5,0,5.6,2.9,5.3,3.9c2.5-2.8,3.5-6.2,3.6-6.5c0.1-0.4-0.1-0.7-0.6-0.7H380.9z"/>
	<path class="st2" d="M410.3,68.8c0.2,0,0.8,0,0.7,0.5c-0.1,0.5-0.6,0.5-0.8,0.5h-16c-0.2,0-0.8,0-0.7-0.5c0.1-0.5,0.6-0.5,0.8-0.5
		H410.3z M410.2,56.9c0.3,0,0.8,0,0.7,0.5c-0.1,0.5-0.6,0.5-0.8,0.5h-12.6c-0.3,0-0.8,0-0.7-0.5c0.1-0.5,0.6-0.5,0.8-0.5H410.2z"/>
	<path class="st2" d="M430.5,57.8c0.8,0,1.5,0.3,1.4,1.2c-0.1,0.6-2.6,9.2-10.3,11.9c-1.5,0.5-4.5,1.1-5.6,1.1
		c-0.2,0-0.4-0.2-0.4-0.5c0.1-0.4,0.3-0.5,0.9-0.5c4.5-0.6,7.9-2.1,10.7-5.8c2.1-2.8,2.9-5.6,2.9-6c0-0.2-0.1-0.5-0.5-0.5h-7.1
		c-1.1,1.7-2.2,2.9-4,4c-0.8,0.5-2.1,1.3-2.4,1.3c-0.3,0-0.4-0.2-0.4-0.5c0-0.2,0.1-0.3,0.5-0.5c1.1-0.6,4.4-2.4,6.3-7.5
		c0.2-0.6,0.4-1.1,1.1-1.1c0.3,0,0.9,0.2,0.8,0.8c-0.1,0.5-1.1,2.3-1.3,2.6H430.5z"/>
</g>
</svg>
